<?xml version="1.0" encoding="UTF-8"?>
<svg width="25px" height="26px" viewBox="0 0 25 26" version="1.1" xmlns="http://www.w3.org/2000/svg" xmlns:xlink="http://www.w3.org/1999/xlink">
    <!-- Generator: Sketch 52.4 (67378) - http://www.bohemiancoding.com/sketch -->
    <title>Fill 1</title>
    <desc>Created with Sketch.</desc>
    <g id="Page-1" stroke="none" stroke-width="1" fill="none" fill-rule="evenodd">
        <g id="Index" transform="translate(-306.000000, -17.000000)" fill="#C2C3C3">
            <g id="Group-2">
                <path d="M317.754,33.257 C321.344,33.257 324.257,30.345 324.257,26.754 C324.257,23.164 321.345,20.251 317.754,20.251 C314.164,20.251 311.251,23.165 311.251,26.756 C311.251,30.346 314.165,33.259 317.756,33.259 L317.754,33.257 Z M323.368,34.731 L327.508,43.01 L324.258,44.636 L320.056,36.236 C319.318,36.413 318.546,36.508 317.754,36.508 C312.367,36.508 308,32.14 308,26.754 C308,21.368 312.367,17 317.754,17 C323.141,17 327.508,21.367 327.508,26.754 C327.508,30.051 325.872,32.966 323.368,34.732 L323.368,34.731 Z" id="Fill-1" transform="translate(317.754000, 30.818000) rotate(-15.000000) translate(-317.754000, -30.818000) "></path>
            </g>
        </g>
    </g>
</svg>