<?xml version="1.0" encoding="UTF-8"?>
<svg width="22px" height="22px" viewBox="0 0 22 22" version="1.1" xmlns="http://www.w3.org/2000/svg" xmlns:xlink="http://www.w3.org/1999/xlink">
    <!-- Generator: Sketch 52.4 (67378) - http://www.bohemiancoding.com/sketch -->
    <title>ig</title>
    <desc>Created with Sketch.</desc>
    <g id="Page-1" stroke="none" stroke-width="1" fill="none" fill-rule="evenodd">
        <g id="Index" transform="translate(-1319.000000, -1959.000000)" stroke="#FFFFFF" stroke-width="1.5">
            <g id="Group-14" transform="translate(0.000000, 1670.000000)">
                <g id="Group-13" transform="translate(0.000000, 269.000000)">
                    <g id="Group-12" transform="translate(1194.000000, 21.000000)">
                        <g id="ig" transform="translate(126.000000, 0.000000)">
                            <path d="M13.5,19.375 L6.5,19.375 C3.25,19.375 0.625,16.75 0.625,13.5 L0.625,6.5 C0.625,3.25 3.25,0.625 6.5,0.625 L13.5,0.625 C16.75,0.625 19.375,3.25 19.375,6.5 L19.375,13.5 C19.375,16.75 16.75,19.375 13.5,19.375 Z" id="Path"></path>
                            <path d="M10,13.625 C8,13.625 6.375,12 6.375,10 C6.375,8 8,6.375 10,6.375 C12,6.375 13.625,8 13.625,10 C13.625,12 12,13.625 10,13.625 Z" id="Path"></path>
                        </g>
                    </g>
                </g>
            </g>
        </g>
    </g>
</svg>