<?xml version="1.0" encoding="UTF-8"?>
<svg width="24px" height="20px" viewBox="0 0 24 20" version="1.1" xmlns="http://www.w3.org/2000/svg" xmlns:xlink="http://www.w3.org/1999/xlink">
    <!-- Generator: Sketch 52.4 (67378) - http://www.bohemiancoding.com/sketch -->
    <title>tw</title>
    <desc>Created with Sketch.</desc>
    <g id="Page-1" stroke="none" stroke-width="1" fill="none" fill-rule="evenodd">
        <g id="Index" transform="translate(-1228.000000, -1960.000000)" fill="#FFFFFF">
            <g id="Group-14" transform="translate(0.000000, 1670.000000)">
                <g id="Group-13" transform="translate(0.000000, 269.000000)">
                    <g id="Group-12" transform="translate(1194.000000, 21.000000)">
                        <g id="tw" transform="translate(33.000000, 0.000000)">
                            <path d="M24.2857143,2.85714286 C23.4285714,3.28571429 22.5714286,3.42857143 21.5714286,3.57142857 C22.5714286,3 23.2857143,2.14285714 23.5714286,1 C22.7142857,1.57142857 21.7142857,1.85714286 20.5714286,2.14285714 C19.7142857,1.28571429 18.4285714,0.714285714 17.1428571,0.714285714 C14.5714286,0.714285714 12.4285714,2.85714286 12.4285714,5.42857143 C12.4285714,5.85714286 12.4285714,6.14285714 12.5714286,6.42857143 C8.71428571,6.28571429 5.28571429,4.42857143 2.85714286,1.57142857 C2.42857143,2.28571429 2.28571429,3 2.28571429,3.85714286 C2.28571429,5.42857143 3.14285714,6.85714286 4.42857143,7.71428571 C3.71428571,7.71428571 3,7.42857143 2.28571429,7.14285714 C2.28571429,7.14285714 2.28571429,7.14285714 2.28571429,7.14285714 C2.28571429,9.42857143 3.85714286,11.2857143 6,11.7142857 C5.57142857,11.8571429 5.14285714,11.8571429 4.71428571,11.8571429 C4.42857143,11.8571429 4.14285714,11.8571429 3.85714286,11.7142857 C4.42857143,13.5714286 6.14285714,15 8.28571429,15 C6.71428571,16.2857143 4.71428571,17 2.42857143,17 C2,17 1.71428571,17 1.28571429,17 C3.42857143,18.2857143 5.85714286,19.1428571 8.42857143,19.1428571 C17,19.1428571 21.7142857,12 21.7142857,5.85714286 C21.7142857,5.71428571 21.7142857,5.42857143 21.7142857,5.28571429 C22.8571429,4.71428571 23.7142857,3.85714286 24.2857143,2.85714286 Z" id="Path"></path>
                        </g>
                    </g>
                </g>
            </g>
        </g>
    </g>
</svg>