<?xml version="1.0" encoding="UTF-8"?>
<svg width="167px" height="24px" viewBox="0 0 167 24" version="1.1" xmlns="http://www.w3.org/2000/svg" xmlns:xlink="http://www.w3.org/1999/xlink">
    <!-- Generator: Sketch 52.4 (67378) - http://www.bohemiancoding.com/sketch -->
    <title>Group</title>
    <desc>Created with Sketch.</desc>
    <g id="Page-1" stroke="none" stroke-width="1" fill="none" fill-rule="evenodd">
        <g id="Index" transform="translate(-100.000000, -18.000000)" fill="#FFFFFF">
            <g id="Group-2">
                <g id="Group" transform="translate(100.000000, 18.000000)">
                    <path d="M11.5020837,18.7178233 C8.18896744,18.7178233 5.12589767,16.3111256 5.12589767,12.1541023 C5.12589767,7.49698605 8.47026977,5.3715907 11.4395721,5.3715907 C15.3465488,5.3715907 16.7530605,7.96582326 17.0968744,9.49735814 L21.7539907,8.02833488 C21.035107,4.84024186 18.0970605,0.558195349 11.4395721,0.558195349 C5.25092093,0.558195349 -5.58139536e-05,5.24656744 -5.58139536e-05,12.1541023 C-5.58139536e-05,19.0616372 5.12589767,23.6562419 11.5020837,23.6562419 C18.3783628,23.6562419 21.3164093,18.9678698 22.035293,15.9048 L17.3156651,14.5608 C16.8780837,16.1548465 15.3465488,18.7178233 11.5020837,18.7178233" id="Fill-1"></path>
                    <polygon id="Fill-4" points="67.4141581 14.4982884 59.1001116 1.02703256 53.0995535 1.02703256 53.0995535 23.1874047 58.0067163 23.1874047 58.0067163 8.62219535 67.1328558 23.1874047 72.3525767 23.1874047 72.3525767 1.02703256 67.4141581 1.02703256"></polygon>
                    <polygon id="Fill-6" points="75.1430512 5.74654884 81.9568186 5.74654884 81.9568186 23.187293 86.8957953 23.187293 86.8957953 5.74654884 93.7402605 5.74654884 93.7402605 1.02692093 75.1430512 1.02692093"></polygon>
                    <path d="M107.505879,18.7802791 C104.411553,18.7802791 101.098995,16.7173953 101.098995,12.0915349 C101.098995,7.46567442 104.411553,5.37153488 107.505879,5.37153488 C110.568949,5.37153488 113.882623,7.46567442 113.882623,12.0915349 C113.882623,16.7173953 110.568949,18.7802791 107.505879,18.7802791 M107.505879,0.558139535 C101.255274,0.558139535 95.9730419,5.09023256 95.9730419,12.1227907 C95.9730419,19.124093 101.255274,23.656186 107.505879,23.656186 C113.726344,23.656186 119.008019,19.124093 119.008019,12.1227907 C119.008019,5.09023256 113.726344,0.558139535 107.505879,0.558139535" id="Fill-8"></path>
                    <path d="M131.52826,9.99745116 L128.558958,9.43484651 C127.027423,9.15354419 126.371051,8.37214884 126.371051,7.30945116 C126.371051,6.09047442 127.558772,4.9340093 129.402865,4.9340093 C132.090865,4.9340093 132.934772,6.68433488 133.091051,7.71577674 L137.529377,6.46554419 C137.06054,3.87131163 134.9664,0.558195349 129.434121,0.558195349 C125.18333,0.558195349 121.495144,3.49624186 121.495144,7.68452093 C121.495144,10.9663814 123.776819,13.4668465 127.527516,14.1857302 L130.55933,14.7483349 C132.028353,15.0296372 132.934772,15.8422884 132.934772,16.9674977 C132.934772,18.3427535 131.747051,19.2804279 129.809191,19.2804279 C126.777377,19.2804279 125.402121,17.4988465 125.214586,15.4672186 L120.682493,16.5611721 C120.995051,19.6867535 123.62054,23.6562419 129.746679,23.6562419 C135.028353,23.6562419 137.935144,20.1243349 137.935144,16.6549395 C137.935144,13.4981023 135.747795,10.7788465 131.52826,9.99745116" id="Fill-11"></path>
                    <path d="M38.806214,18.7802791 C37.9790512,18.7802791 37.1396093,18.6228837 36.3492837,18.3164651 C38.1699349,16.9133023 39.3068651,14.7019535 39.3068651,12.1149767 C39.3068651,9.4984186 38.1481674,7.2664186 36.2973767,5.86213953 C37.1027721,5.53897674 37.9606326,5.37153488 38.806214,5.37153488 C41.8692837,5.37153488 45.1829581,7.46567442 45.1829581,12.0915349 C45.1829581,16.7173953 41.8692837,18.7802791 38.806214,18.7802791 M31.5157953,15.456 C29.9066791,15.456 28.1747721,14.4100465 28.1747721,12.1149767 C28.1747721,9.80874419 29.9066791,8.75832558 31.5157953,8.75832558 C33.1176558,8.75832558 34.8417488,9.80874419 34.8417488,12.1149767 C34.8417488,14.4100465 33.1176558,15.456 31.5157953,15.456 M38.806214,0.558139535 C35.3284465,0.558139535 32.1604465,1.96967442 30.0283535,4.42827907 C26.3396093,5.08632558 23.7096558,8.16893023 23.7096558,12.1149767 C23.7096558,16.0509767 26.3368186,19.1263256 30.0227721,19.7854884 C32.1548651,22.2424186 35.3256558,23.656186 38.806214,23.656186 C45.0266791,23.656186 50.3083535,19.124093 50.3083535,12.1227907 C50.3083535,5.09023256 45.0266791,0.558139535 38.806214,0.558139535" id="Fill-14"></path>
                    <path d="M158.960763,15.4559442 C157.358902,15.4559442 155.634809,14.4099907 155.634809,12.1149209 C155.634809,9.80868837 157.358902,8.75826977 158.960763,8.75826977 C160.569879,8.75826977 162.301786,9.80868837 162.301786,12.1149209 C162.301786,14.4099907 160.569879,15.4559442 158.960763,15.4559442 M154.127274,18.3164093 C153.336949,18.6228279 152.497507,18.7802233 151.670344,18.7802233 C148.607274,18.7802233 145.2936,16.7173395 145.2936,12.0914791 C145.2936,7.4656186 148.607274,5.37147907 151.670344,5.37147907 C152.515926,5.37147907 153.373786,5.53892093 154.179181,5.86264186 C152.328391,7.26636279 151.169693,9.49836279 151.169693,12.1149209 C151.169693,14.7018977 152.306623,16.9132465 154.127274,18.3164093 M160.448205,4.42822326 C158.316112,1.9696186 155.148112,0.558083721 151.670344,0.558083721 C145.449879,0.558083721 140.168205,5.09017674 140.168205,12.1227349 C140.168205,19.1240372 145.449879,23.6561302 151.670344,23.6561302 C155.150902,23.6561302 158.321693,22.2423628 160.453786,19.7854326 C164.13974,19.1262698 166.766902,16.0509209 166.766902,12.1149209 C166.766902,8.16887442 164.136949,5.08626977 160.448205,4.42822326" id="Fill-17"></path>
                </g>
            </g>
        </g>
    </g>
</svg>